<svg width="128" height="128" viewBox="0 0 128 128" fill="none" xmlns="http://www.w3.org/2000/svg">
<rect width="128" height="128" fill="#421407"/>
<path d="M113.398 67.448C113.398 79.224 110.012 91.0736 104.272 91C96.6907 90.9264 88.4475 91.0736 83.5899 91.0736C81.1611 91.0736 80.7195 90.4112 80.7195 87.9824V40.216C80.7195 37.7872 81.1611 37.272 83.5899 37.272H96.9851C107.657 37.272 113.398 53.2432 113.398 67.448ZM92.5691 83.7872C94.2619 83.7872 96.7643 83.64 98.3099 83.4192C102.652 82.7568 104.787 77.016 104.787 68.7728C104.787 58.0272 101.18 44.632 93.8939 44.632H92.0539C89.5515 44.632 89.0363 45.0736 89.0363 47.576C89.0363 57.5856 89.1835 70.5392 89.5515 80.5488C89.6251 83.1248 89.9931 83.7872 92.5691 83.7872Z" fill="#FED7AA"/>
<path d="M71.4195 67.9632C75.3203 73.1888 75.8355 77.1632 75.7619 80.6224C75.7619 85.9952 72.3763 91.0736 69.3587 91C63.6915 90.9264 56.2579 90.9264 51.6211 91C49.1923 91.0736 48.6771 90.4848 48.6771 88.056V85.6272C48.6771 83.7872 49.1923 83.272 51.6211 83.4192C53.8291 83.5664 58.6131 83.64 61.3363 83.64C65.3107 83.5664 66.7091 82.0208 66.7091 79.1504C66.7091 77.6048 66.3411 76.2064 64.2067 73.1888L55.4483 60.7504C51.2531 54.7888 50.6643 50.9616 50.7379 47.6496C50.7379 42.3504 53.6819 37.1984 57.2147 37.272C61.9987 37.3456 67.5923 37.3456 72.0083 37.272C74.4371 37.1984 74.9523 37.7872 74.9523 40.216V42.6448C74.9523 44.4848 74.4371 45.1472 72.0819 44.8528C70.0947 44.632 67.1507 44.5584 65.3843 44.5584C61.5571 44.5584 59.7171 46.3984 59.7171 49.1216C59.7171 51.4768 60.6003 53.3168 62.2931 55.5984L71.4195 67.9632Z" fill="#FED7AA"/>
<path d="M37.4134 37.272C44.2582 37.1984 47.423 49.048 47.423 61.56C47.423 75.7648 41.9766 91.2208 34.1014 91C31.7462 90.9264 29.391 90.9264 26.8886 91C19.0134 91.2208 13.567 75.7648 13.567 61.56C13.567 49.048 16.7318 37.1984 23.5766 37.272C28.2134 37.3456 32.7766 37.3456 37.4134 37.272ZM31.8198 83.5664C35.647 82.904 38.5174 70.5392 38.5174 59.4992C38.5174 51.624 37.0454 45.4416 33.071 44.7792C31.3782 44.4848 29.6118 44.4848 27.919 44.7792C23.9446 45.4416 22.399 51.624 22.399 59.4992C22.399 70.5392 25.2694 82.904 29.0966 83.5664C29.9798 83.7136 30.9366 83.7136 31.8198 83.5664Z" fill="#FED7AA"/>
</svg>
